<?xml version="1.0" encoding="UTF-8" standalone="no"?>
<svg
   xmlns:dc="http://purl.org/dc/elements/1.1/"
   xmlns:cc="http://creativecommons.org/ns#"
   xmlns:rdf="http://www.w3.org/1999/02/22-rdf-syntax-ns#"
   xmlns:svg="http://www.w3.org/2000/svg"
   xmlns="http://www.w3.org/2000/svg"
   xmlns:sodipodi="http://sodipodi.sourceforge.net/DTD/sodipodi-0.dtd"
   xmlns:inkscape="http://www.inkscape.org/namespaces/inkscape"
   width="1169.2913"
   height="779.52753"
   id="svg2"
   version="1.1"
   inkscape:version="0.48.4 r9939"
   sodipodi:docname="lasercut_sheet3mm.svg">
  <metadata
     id="metadata448">
    <rdf:RDF>
      <cc:Work
         rdf:about="">
        <dc:format>image/svg+xml</dc:format>
        <dc:type
           rdf:resource="http://purl.org/dc/dcmitype/StillImage" />
        <dc:title />
      </cc:Work>
    </rdf:RDF>
  </metadata>
  <sodipodi:namedview
     pagecolor="#ffffff"
     bordercolor="#666666"
     borderopacity="1"
     objecttolerance="10"
     gridtolerance="10"
     guidetolerance="10"
     inkscape:pageopacity="0"
     inkscape:pageshadow="2"
     inkscape:window-width="1280"
     inkscape:window-height="756"
     id="namedview446"
     showgrid="false"
     inkscape:zoom="0.5"
     inkscape:cx="718.7544"
     inkscape:cy="265.00056"
     inkscape:window-x="-3"
     inkscape:window-y="-3"
     inkscape:window-maximized="1"
     inkscape:current-layer="g20"
     units="mm"
     inkscape:document-units="mm"
     fit-margin-top="2"
     fit-margin-left="2"
     fit-margin-right="2"
     fit-margin-bottom="2"
     width="30mm" />
  <desc
     id="desc4">/home/muzy/Downloads/total_sheet_gripper_rounded_gears.dxf - scale = 1.112514</desc>
  <defs
     id="defs6">
    <inkscape:perspective
       sodipodi:type="inkscape:persp3d"
       inkscape:vp_x="0 : 526.18109 : 1"
       inkscape:vp_y="0 : 1000 : 0"
       inkscape:vp_z="744.09448 : 526.18109 : 1"
       inkscape:persp3d-origin="372.04724 : 350.78739 : 1"
       id="perspective4357" />
    <marker
       id="DistanceX"
       orient="auto"
       refX="0"
       refY="0"
       style="overflow:visible">
      <path
         d="M 3,-3 -3,3 M 0,-5 0,5"
         style="stroke:#000000;stroke-width:0.5"
         id="path9"
         inkscape:connector-curvature="0" />
    </marker>
    <pattern
       height="8"
       id="Hatch"
       patternUnits="userSpaceOnUse"
       width="8"
       x="0"
       y="0">
      <path
         d="M8 4 l-4,4"
         linecap="square"
         stroke="#000000"
         stroke-width="0.25"
         id="path12" />
      <path
         d="M6 2 l-4,4"
         linecap="square"
         stroke="#000000"
         stroke-width="0.25"
         id="path14" />
      <path
         d="M4 0 l-4,4"
         linecap="square"
         stroke="#000000"
         stroke-width="0.25"
         id="path16" />
    </pattern>
    <symbol
       id="$MODEL_SPACE" />
    <symbol
       id="$PAPER_SPACE" />
  </defs>
  <g
     inkscape:groupmode="layer"
     inkscape:label="0"
     id="g20"
     transform="translate(29.0038,8.3086617)">
    <path
       style="fill:none;stroke:#000000;stroke-width:0.35433071;stroke-miterlimit:4;stroke-opacity:1;stroke-dasharray:none"
       d="m 172.36382,759.24922 a 5.9129754,5.9129754 0 0 0 0,-11.82595 5.9129754,5.9129754 0 1 0 0,11.82595 z"
       id="path5949" />
    <path
       style="fill:none;stroke:#000000;stroke-width:0.35433071;stroke-miterlimit:4;stroke-opacity:1;stroke-dasharray:none"
       d="m 172.36382,765.16219 a 11.825945,11.825945 0 1 0 0,-23.65189 11.825945,11.825945 0 0 0 0,23.65189 z"
       id="path86-4-46-9-5-1" />
    <path
       style="fill:none;stroke:#000000;stroke-width:0.35433071;stroke-miterlimit:4;stroke-opacity:1;stroke-dasharray:none"
       d="m 52.652525,759.24922 a 5.9129754,5.9129754 0 0 0 0,-11.82595 5.9129754,5.9129754 0 1 0 0,11.82595 z"
       id="path5945" />
    <path
       style="fill:none;stroke:#000000;stroke-width:0.35433071;stroke-miterlimit:4;stroke-opacity:1;stroke-dasharray:none"
       d="m 52.652525,765.16219 a 11.825945,11.825945 0 1 0 0,-23.65189 11.825945,11.825945 0 0 0 0,23.65189 z"
       id="path86-4-46-7-7-2" />
    <path
       style="fill:none;stroke:#000000;stroke-width:0.35433071;stroke-miterlimit:4;stroke-opacity:1;stroke-dasharray:none"
       d="m 262.14729,759.24922 a 5.9129754,5.9129754 0 0 0 0,-11.82595 5.9129754,5.9129754 0 1 0 0,11.82595 z"
       id="path5941" />
    <path
       style="fill:none;stroke:#000000;stroke-width:0.35433071;stroke-miterlimit:4;stroke-opacity:1;stroke-dasharray:none"
       d="m 262.14729,765.16219 a 11.825945,11.825945 0 1 0 0,-23.65189 11.825945,11.825945 0 0 0 0,23.65189 z"
       id="path86-4-46-9-9-7-2" />
    <path
       style="fill:none;stroke:#000000;stroke-width:0.35433071;stroke-miterlimit:4;stroke-opacity:1;stroke-dasharray:none"
       d="m 316.08997,753.33624 a 5.9129754,5.9129754 0 1 0 11.82595,0 5.9129754,5.9129754 0 0 0 -11.82595,0 z"
       id="path5937" />
    <path
       style="fill:none;stroke:#000000;stroke-width:0.35433071;stroke-miterlimit:4;stroke-opacity:1;stroke-dasharray:none"
       d="m 310.177,753.33624 a 11.825945,11.825945 0 1 0 23.65189,0 11.825945,11.825945 0 1 0 -23.65189,0 z"
       id="path86-4-46-0-4-8" />
    <path
       style="fill:none;stroke:#000000;stroke-width:0.35433071;stroke-miterlimit:4;stroke-opacity:1;stroke-dasharray:none"
       d="m 202.29165,759.24922 a 5.9129754,5.9129754 0 0 0 0,-11.82595 5.9129754,5.9129754 0 1 0 0,11.82595 z"
       id="path5933" />
    <path
       style="fill:none;stroke:#000000;stroke-width:0.35433071;stroke-miterlimit:4;stroke-opacity:1;stroke-dasharray:none"
       d="m 202.29165,765.16219 a 11.825945,11.825945 0 1 0 0,-23.65189 11.825945,11.825945 0 0 0 0,23.65189 z"
       id="path86-4-46-9-5-1-5" />
    <path
       style="fill:none;stroke:#000000;stroke-width:0.35433071;stroke-miterlimit:4;stroke-opacity:1;stroke-dasharray:none"
       d="m 82.58035,759.24922 a 5.9129754,5.9129754 0 0 0 0,-11.82595 5.9129754,5.9129754 0 1 0 0,11.82595 z"
       id="path5929" />
    <path
       style="fill:none;stroke:#000000;stroke-width:0.35433071;stroke-miterlimit:4;stroke-opacity:1;stroke-dasharray:none"
       d="m 82.58035,765.16219 a 11.825945,11.825945 0 1 0 0,-23.65189 11.825945,11.825945 0 0 0 0,23.65189 z"
       id="path86-4-46-7-7-2-1" />
    <path
       style="fill:none;stroke:#000000;stroke-width:0.35433071;stroke-miterlimit:4;stroke-opacity:1;stroke-dasharray:none"
       d="m 292.07512,759.24922 a 5.9129754,5.9129754 0 0 0 0,-11.82595 5.9129754,5.9129754 0 1 0 0,11.82595 z"
       id="path5925" />
    <path
       style="fill:none;stroke:#000000;stroke-width:0.35433071;stroke-miterlimit:4;stroke-opacity:1;stroke-dasharray:none"
       d="m 292.07512,765.16219 a 11.825945,11.825945 0 1 0 0,-23.65189 11.825945,11.825945 0 0 0 0,23.65189 z"
       id="path86-4-46-9-9-7-2-7" />
    <path
       style="fill:none;stroke:#000000;stroke-width:0.35433071;stroke-miterlimit:4;stroke-opacity:1;stroke-dasharray:none"
       d="m -13.1161,753.33624 a 5.9129754,5.9129754 0 1 0 11.8259497,0 5.9129754,5.9129754 0 0 0 -11.8259497,0 z"
       id="path5921" />
    <path
       style="fill:none;stroke:#000000;stroke-width:0.35433071;stroke-miterlimit:4;stroke-opacity:1;stroke-dasharray:none"
       d="m -19.02906,753.33624 a 11.825944,11.825944 0 1 0 23.6518797,0 11.825944,11.825944 0 1 0 -23.6518797,0 z"
       id="path86-4-46-0-4-8-7" />
    <path
       style="fill:none;stroke:#000000;stroke-width:0.35433071;stroke-miterlimit:4;stroke-opacity:1;stroke-dasharray:none"
       d="m 232.21947,759.24922 a 5.9129754,5.9129754 0 0 0 0,-11.82595 5.9129754,5.9129754 0 1 0 0,11.82595 z"
       id="path5917" />
    <path
       style="fill:none;stroke:#000000;stroke-width:0.35433071;stroke-miterlimit:4;stroke-opacity:1;stroke-dasharray:none"
       d="m 232.21947,765.16219 a 11.825945,11.825945 0 1 0 0,-23.65189 11.825945,11.825945 0 0 0 0,23.65189 z"
       id="path86-4-46-9-5-1-5-9" />
    <path
       style="fill:none;stroke:#000000;stroke-width:0.35433071;stroke-miterlimit:4;stroke-opacity:1;stroke-dasharray:none"
       d="m 106.5952,753.33624 a 5.9129754,5.9129754 0 1 0 11.82595,0 5.9129754,5.9129754 0 0 0 -11.82595,0 z"
       id="path5913" />
    <path
       style="fill:none;stroke:#000000;stroke-width:0.35433071;stroke-miterlimit:4;stroke-opacity:1;stroke-dasharray:none"
       d="m 100.68224,753.33624 a 11.825944,11.825944 0 1 0 23.65188,0 11.825944,11.825944 0 1 0 -23.65188,0 z"
       id="path86-4-46-0-4-8-5" />
    <path
       style="fill:none;stroke:#000000;stroke-width:0.35433071;stroke-miterlimit:4;stroke-opacity:1;stroke-dasharray:none"
       d="m 142.436,759.24922 a 5.9129754,5.9129754 0 0 0 0,-11.82595 5.9129754,5.9129754 0 1 0 0,11.82595 z"
       id="path5909" />
    <path
       style="fill:none;stroke:#000000;stroke-width:0.35433071;stroke-miterlimit:4;stroke-opacity:1;stroke-dasharray:none"
       d="m 142.436,765.16219 a 11.825945,11.825945 0 1 0 0,-23.65189 11.825945,11.825945 0 0 0 0,23.65189 z"
       id="path86-4-46-9-5-1-5-6" />
    <path
       style="fill:none;stroke:#000000;stroke-width:0.35433071;stroke-miterlimit:4;stroke-opacity:1;stroke-dasharray:none"
       d="m 22.724704,759.24922 a 5.9129754,5.9129754 0 0 0 0,-11.82595 5.9129754,5.9129754 0 1 0 0,11.82595 z"
       id="path5905" />
    <path
       style="fill:none;stroke:#000000;stroke-width:0.35433071;stroke-miterlimit:4;stroke-opacity:1;stroke-dasharray:none"
       d="m 22.724704,765.16219 a 11.825945,11.825945 0 1 0 0,-23.65189 11.825945,11.825945 0 0 0 0,23.65189 z"
       id="path86-4-46-7-7-2-1-6" />
    <path
       style="fill:none;stroke:#000000;stroke-width:0.35433072;stroke-linejoin:round;stroke-miterlimit:4;stroke-opacity:1;stroke-dasharray:none"
       d="m 110.02193,624.51123 0,-20.03439 10.49421,0 0,20.03439 z"
       id="path3181" />
    <path
       style="fill:none;stroke:#000000;stroke-width:0.35433072;stroke-linejoin:round;stroke-miterlimit:4;stroke-opacity:1;stroke-dasharray:none"
       d="m 110.02193,583.36162 0,-20.03438 10.49421,0 0,20.03438 z"
       id="path3179" />
    <path
       style="fill:none;stroke:#000000;stroke-width:0.35433072;stroke-linejoin:round;stroke-miterlimit:4;stroke-opacity:1;stroke-dasharray:none"
       d="m 115.26904,586.89601 c 3.87881,0 7.02322,3.1444 7.02322,7.02323 0,3.87882 -3.14441,7.02322 -7.02322,7.02322 -3.87881,0 -7.02323,-3.1444 -7.02323,-7.02322 0,-3.87883 3.14442,-7.02323 7.02323,-7.02323 z"
       id="path3177" />
    <path
       style="fill:none;stroke:#000000;stroke-width:0.35433072;stroke-linejoin:round;stroke-miterlimit:4;stroke-opacity:1;stroke-dasharray:none"
       d="m 281.25455,563.32723 0,20.03439 -10.49387,0 0,-20.03439 z"
       id="path3175" />
    <path
       style="fill:none;stroke:#000000;stroke-width:0.35433072;stroke-linejoin:round;stroke-miterlimit:4;stroke-opacity:1;stroke-dasharray:none"
       d="m 281.25455,604.47684 0,20.03438 -10.49387,0 0,-20.03438 z"
       id="path3173" />
    <path
       style="fill:none;stroke:#000000;stroke-width:0.35433072;stroke-linejoin:round;stroke-miterlimit:4;stroke-opacity:1;stroke-dasharray:none"
       d="m 276.00761,600.94245 c -3.87881,0 -7.02322,-3.14439 -7.02322,-7.02322 0,-3.87882 3.14441,-7.02323 7.02322,-7.02323 3.8788,0 7.02323,3.14441 7.02323,7.02323 0,3.87883 -3.14443,7.02322 -7.02323,7.02322 z"
       id="path3171" />
    <path
       style="fill:none;stroke:#000000;stroke-width:0.35433072;stroke-linejoin:round;stroke-miterlimit:4;stroke-opacity:1;stroke-dasharray:none"
       d="m 413.57248,60.26779 c 0,-33.2401 -26.84119,-60 -60.1875,-60 l -314.9375,0 c -33.34631,0 -60.1875,26.7599 -60.1875,60 0,192.5417 0,339.0833 0,531.625 0,70.9461 57.11623,138.0624 128.0625,138.0624 l 179.1875,0 c 70.94627,0 128.0625,-67.1162 128.0625,-138.0624 0,-192.5417 0,-339.0833 0,-531.625 z"
       id="path3169" />
    <path
       style="fill:none;stroke:#000000;stroke-width:0.35433072;stroke-linejoin:round;stroke-miterlimit:4;stroke-opacity:1;stroke-dasharray:none"
       d="m 101.13817,515.67741 c -3.13107,0 -5.66929,-2.53822 -5.66929,-5.66929 0,-3.13105 2.53822,-5.66929 5.66929,-5.66929 3.13106,0 5.66929,2.53824 5.66929,5.66929 0,3.13107 -2.53823,5.66929 -5.66929,5.66929 z"
       id="path3167" />
    <path
       style="fill:none;stroke:#000000;stroke-width:0.35433072;stroke-linejoin:round;stroke-miterlimit:4;stroke-opacity:1;stroke-dasharray:none"
       d="m 101.13817,515.67741 c -3.13107,0 -5.66929,-2.53822 -5.66929,-5.66929 0,-3.13105 2.53822,-5.66929 5.66929,-5.66929 3.13106,0 5.66929,2.53824 5.66929,5.66929 0,3.13107 -2.53823,5.66929 -5.66929,5.66929 z"
       id="path3165" />
    <path
       style="fill:none;stroke:#000000;stroke-width:0.35433072;stroke-linejoin:round;stroke-miterlimit:4;stroke-opacity:1;stroke-dasharray:none"
       d="m 290.13816,515.67741 c -3.13106,0 -5.66929,-2.53822 -5.66929,-5.66929 0,-3.13105 2.53823,-5.66929 5.66929,-5.66929 3.13106,0 5.66929,2.53824 5.66929,5.66929 0,3.13107 -2.53823,5.66929 -5.66929,5.66929 z"
       id="path3163" />
    <path
       style="fill:none;stroke:#000000;stroke-width:0.35433072;stroke-linejoin:round;stroke-miterlimit:4;stroke-opacity:1;stroke-dasharray:none"
       d="m 290.13816,515.67741 c -3.13106,0 -5.66929,-2.53822 -5.66929,-5.66929 0,-3.13105 2.53823,-5.66929 5.66929,-5.66929 3.13106,0 5.66929,2.53824 5.66929,5.66929 0,3.13107 -2.53823,5.66929 -5.66929,5.66929 z"
       id="path3161" />
    <path
       style="fill:none;stroke:#000000;stroke-width:0.35433072;stroke-linejoin:round;stroke-miterlimit:4;stroke-opacity:1;stroke-dasharray:none"
       d="m 348.63816,263.67744 c -3.13106,0 -5.66928,-2.53823 -5.66928,-5.66929 0,-3.13106 2.53822,-5.66929 5.66928,-5.66929 3.13108,0 5.66929,2.53823 5.66929,5.66929 0,3.13106 -2.53821,5.66929 -5.66929,5.66929 z"
       id="path3159" />
    <path
       style="fill:none;stroke:#000000;stroke-width:0.35433072;stroke-linejoin:round;stroke-miterlimit:4;stroke-opacity:1;stroke-dasharray:none"
       d="m 348.63816,263.67744 c -3.13106,0 -5.66928,-2.53823 -5.66928,-5.66929 0,-3.13106 2.53822,-5.66929 5.66928,-5.66929 3.13108,0 5.66929,2.53823 5.66929,5.66929 0,3.13106 -2.53821,5.66929 -5.66929,5.66929 z"
       id="path3157" />
    <path
       style="fill:none;stroke:#000000;stroke-width:0.35433072;stroke-linejoin:round;stroke-miterlimit:4;stroke-opacity:1;stroke-dasharray:none"
       d="m 42.63817,263.67744 c -3.13106,0 -5.66929,-2.53823 -5.66929,-5.66929 0,-3.13106 2.53823,-5.66929 5.66929,-5.66929 3.13106,0 5.66929,2.53823 5.66929,5.66929 0,3.13106 -2.53823,5.66929 -5.66929,5.66929 z"
       id="path3155" />
    <path
       style="fill:none;stroke:#000000;stroke-width:0.35433072;stroke-linejoin:round;stroke-miterlimit:4;stroke-opacity:1;stroke-dasharray:none"
       d="m 226.21295,566.18058 0,39.43307 -57.1496,0 0,-39.43307 z"
       id="path3153" />
    <path
       style="fill:none;stroke:#000000;stroke-width:0.35433072;stroke-linejoin:round;stroke-miterlimit:4;stroke-opacity:1;stroke-dasharray:none"
       d="m 260.83501,70.66809 c 0,-3.13107 2.53823,-5.66929 5.66929,-5.66929 3.13107,0 5.6693,2.53822 5.6693,5.66929 0,3.13106 -2.53823,5.66929 -5.6693,5.66929 -3.13106,0 -5.66929,-2.53823 -5.66929,-5.66929 z"
       id="path3151" />
    <path
       style="fill:none;stroke:#000000;stroke-width:0.35433072;stroke-linejoin:round;stroke-miterlimit:4;stroke-opacity:1;stroke-dasharray:none"
       d="m 119.1027,70.66809 c 0,-3.13107 2.53823,-5.66929 5.66929,-5.66929 3.13107,0 5.66929,2.53822 5.66929,5.66929 0,3.13106 -2.53822,5.66929 -5.66929,5.66929 -3.13106,0 -5.66929,-2.53823 -5.66929,-5.66929 z"
       id="path3149" />
    <path
       style="fill:none;stroke:#000000;stroke-width:0.35433072;stroke-linejoin:round;stroke-miterlimit:4;stroke-opacity:1;stroke-dasharray:none"
       d="m 142.46886,585.89709 c 0,-3.13106 2.53821,-5.66929 5.66929,-5.66929 3.13108,0 5.66929,2.53823 5.66929,5.66929 0,3.13107 -2.53821,5.66929 -5.66929,5.66929 -3.13108,0 -5.66929,-2.53822 -5.66929,-5.66929 z"
       id="path3147" />
    <path
       style="fill:none;stroke:#000000;stroke-width:0.35433072;stroke-linejoin:round;stroke-miterlimit:4;stroke-opacity:1;stroke-dasharray:none"
       d="m 142.46886,585.89709 c 0,-3.13106 2.53821,-5.66929 5.66929,-5.66929 3.13108,0 5.66929,2.53823 5.66929,5.66929 0,3.13107 -2.53821,5.66929 -5.66929,5.66929 -3.13108,0 -5.66929,-2.53822 -5.66929,-5.66929 z"
       id="path3145" />
    <path
       style="fill:none;stroke:#000000;stroke-width:0.35433072;stroke-linejoin:round;stroke-miterlimit:4;stroke-opacity:1;stroke-dasharray:none"
       d="m 241.46886,585.89709 c 0,-3.13106 2.53823,-5.66929 5.66929,-5.66929 3.13107,0 5.66929,2.53823 5.66929,5.66929 0,3.13107 -2.53822,5.66929 -5.66929,5.66929 -3.13106,0 -5.66929,-2.53822 -5.66929,-5.66929 z"
       id="path3143" />
    <path
       style="fill:none;stroke:#000000;stroke-width:0.35433072;stroke-linejoin:round;stroke-miterlimit:4;stroke-opacity:1;stroke-dasharray:none"
       d="m 241.46886,585.89709 c 0,-3.13106 2.53823,-5.66929 5.66929,-5.66929 3.13107,0 5.66929,2.53823 5.66929,5.66929 0,3.13107 -2.53822,5.66929 -5.66929,5.66929 -3.13106,0 -5.66929,-2.53822 -5.66929,-5.66929 z"
       id="path3141" />
    <path
       style="fill:none;stroke:#000000;stroke-width:0.35433072;stroke-linejoin:round;stroke-miterlimit:4;stroke-opacity:1;stroke-dasharray:none"
       d="m 64.83327,547.60576 -20.03439,0 0,-10.49401 20.03439,0 z"
       id="path3139" />
    <path
       style="fill:none;stroke:#000000;stroke-width:0.35433072;stroke-linejoin:round;stroke-miterlimit:4;stroke-opacity:1;stroke-dasharray:none"
       d="m 23.68366,547.60576 -20.03438,0 0,-10.49401 20.03438,0 z"
       id="path3137" />
    <path
       style="fill:none;stroke:#000000;stroke-width:0.35433072;stroke-linejoin:round;stroke-miterlimit:4;stroke-opacity:1;stroke-dasharray:none"
       d="m 27.21805,542.35875 c 0,-3.87881 3.1444,-7.02322 7.02322,-7.02322 3.87882,0 7.02323,3.14441 7.02323,7.02322 0,3.87881 -3.14441,7.02323 -7.02323,7.02323 -3.87882,0 -7.02322,-3.14442 -7.02322,-7.02323 z"
       id="path3135" />
    <path
       style="fill:none;stroke:#000000;stroke-width:0.35433072;stroke-linejoin:round;stroke-miterlimit:4;stroke-opacity:1;stroke-dasharray:none"
       d="m 64.83327,381.91119 -20.03439,0 0,-10.4962 20.03439,0 z"
       id="path3133" />
    <path
       style="fill:none;stroke:#000000;stroke-width:0.35433072;stroke-linejoin:round;stroke-miterlimit:4;stroke-opacity:1;stroke-dasharray:none"
       d="m 23.68366,381.91119 -20.03438,0 0,-10.4962 20.03438,0 z"
       id="path3131" />
    <path
       style="fill:none;stroke:#000000;stroke-width:0.35433072;stroke-linejoin:round;stroke-miterlimit:4;stroke-opacity:1;stroke-dasharray:none"
       d="m 27.21805,376.66308 c 0,-3.87881 3.1444,-7.02321 7.02322,-7.02321 3.87882,0 7.02323,3.1444 7.02323,7.02321 0,3.87881 -3.14441,7.02323 -7.02323,7.02323 -3.87882,0 -7.02322,-3.14442 -7.02322,-7.02323 z"
       id="path3129" />
    <path
       style="fill:none;stroke:#000000;stroke-width:0.35433072;stroke-linejoin:round;stroke-miterlimit:4;stroke-opacity:1;stroke-dasharray:none"
       d="m 387.63788,547.60576 -20.03439,0 0,-10.49401 20.03439,0 z"
       id="path3127" />
    <path
       style="fill:none;stroke:#000000;stroke-width:0.35433072;stroke-linejoin:round;stroke-miterlimit:4;stroke-opacity:1;stroke-dasharray:none"
       d="m 346.48827,547.60576 -20.03438,0 0,-10.49401 20.03438,0 z"
       id="path3125" />
    <path
       style="fill:none;stroke:#000000;stroke-width:0.35433072;stroke-linejoin:round;stroke-miterlimit:4;stroke-opacity:1;stroke-dasharray:none"
       d="m 350.02266,542.35875 c 0,-3.87881 3.1444,-7.02322 7.02322,-7.02322 3.87882,0 7.02323,3.14441 7.02323,7.02322 0,3.87881 -3.14441,7.02323 -7.02323,7.02323 -3.87882,0 -7.02322,-3.14442 -7.02322,-7.02323 z"
       id="path3123" />
    <path
       style="fill:none;stroke:#000000;stroke-width:0.35433072;stroke-linejoin:round;stroke-miterlimit:4;stroke-opacity:1;stroke-dasharray:none"
       d="m 387.63788,381.91119 -20.03439,0 0,-10.4962 20.03439,0 z"
       id="path3121" />
    <path
       style="fill:none;stroke:#000000;stroke-width:0.35433072;stroke-linejoin:round;stroke-miterlimit:4;stroke-opacity:1;stroke-dasharray:none"
       d="m 346.48827,381.91119 -20.03438,0 0,-10.4962 20.03438,0 z"
       id="path3119" />
    <path
       style="fill:none;stroke:#000000;stroke-width:0.35433072;stroke-linejoin:round;stroke-miterlimit:4;stroke-opacity:1;stroke-dasharray:none"
       d="m 350.02266,376.66308 c 0,-3.87881 3.1444,-7.02321 7.02322,-7.02321 3.87882,0 7.02323,3.1444 7.02323,7.02321 0,3.87881 -3.14441,7.02323 -7.02323,7.02323 -3.87882,0 -7.02322,-3.14442 -7.02322,-7.02323 z"
       id="path3117" />
    <path
       style="fill:none;stroke:#000000;stroke-width:0.35433072;stroke-linejoin:round;stroke-miterlimit:4;stroke-opacity:1;stroke-dasharray:none"
       d="m 42.63817,263.67744 c -3.13106,0 -5.66929,-2.53823 -5.66929,-5.66929 0,-3.13106 2.53823,-5.66929 5.66929,-5.66929 3.13106,0 5.66929,2.53823 5.66929,5.66929 0,3.13106 -2.53823,5.66929 -5.66929,5.66929 z"
       id="rect4409-9-1-8-5" />
    <path
       style="fill:none;stroke:#000000;stroke-width:0.35433072;stroke-miterlimit:4;stroke-opacity:1;stroke-dasharray:none"
       d="m 245.17242,687.9337 c 2.0758,0 3.75857,1.68277 3.75857,3.75857 0,2.0758 -1.68277,3.75858 -3.75857,3.75858 -2.0758,0 -3.75857,-1.68278 -3.75857,-3.75858 0,-2.0758 1.68277,-3.75857 3.75857,-3.75857 z"
       id="path3216-1" />
    <path
       style="fill:none;stroke:#000000;stroke-width:0.35433072;stroke-miterlimit:4;stroke-opacity:1;stroke-dasharray:none"
       d="m 150.10388,687.9603 c 2.0758,0 3.75858,1.68277 3.75858,3.75857 0,2.0758 -1.68278,3.75858 -3.75858,3.75858 -2.0758,0 -3.75857,-1.68278 -3.75857,-3.75858 0,-2.0758 1.68277,-3.75857 3.75857,-3.75857 z"
       id="path3214-8" />
    <path
       style="fill:none;stroke:#000000;stroke-width:0.35433072;stroke-miterlimit:4;stroke-opacity:1;stroke-dasharray:none"
       d="m 155.64958,714.72591 0,-46.01409 83.21883,0 0,46.01409 z"
       id="path3212-0" />
    <path
       style="fill:none;stroke:#000000;stroke-width:0.35433072;stroke-miterlimit:4;stroke-opacity:1;stroke-dasharray:none"
       d="m 1128.535,623.22153 c 0,78.11557 -63.3252,141.44074 -141.44081,141.44074 -78.11547,0 -141.44067,-63.32517 -141.44067,-141.44074 0,-78.11557 63.3252,-141.44074 141.44067,-141.44074 78.11561,0 141.44081,63.32517 141.44081,141.44074 z"
       id="path5827" />
    <path
       style="fill:none;stroke:#000000;stroke-width:0.35433072;stroke-miterlimit:4;stroke-opacity:1;stroke-dasharray:none"
       d="m 980.03179,617.87778 c -1.1304,1.48734 -1.7813,3.33148 -1.7813,5.34375 0,1.99957 0.6666,3.85791 1.7813,5.34375 30.81541,0 -18.3309,0 14.125,0 1.1146,-1.48584 1.7812,-3.34418 1.7812,-5.34375 0,-2.01227 -0.6508,-3.85641 -1.7812,-5.34375 -37.2468,0 67.97521,0 -14.125,0 z"
       id="path4212-3" />
    <path
       transform="matrix(1.6466174,0,0,1.3654876,-735.9733,-242.28213)"
       style="fill:none;stroke:#000000;stroke-width:0.23630263;stroke-miterlimit:4;stroke-opacity:1"
       d="m 1037.875,618.40253 c 0,2.83046 -1.9028,5.125 -4.25,5.125 -2.3472,0 -4.25,-2.29454 -4.25,-5.125 0,-2.83046 1.9028,-5.125 4.25,-5.125 2.3472,0 4.25,2.29454 4.25,5.125 z"
       id="path4300" />
    <path
       transform="matrix(1.6466174,0,0,1.3654876,-693.80794,-242.28213)"
       style="fill:none;stroke:#000000;stroke-width:0.23630263;stroke-miterlimit:4;stroke-opacity:1"
       d="m 1037.875,618.40253 c 0,2.83046 -1.9028,5.125 -4.25,5.125 -2.3472,0 -4.25,-2.29454 -4.25,-5.125 0,-2.83046 1.9028,-5.125 4.25,-5.125 2.3472,0 4.25,2.29454 4.25,5.125 z"
       id="path4300-2" />
    <path
       transform="matrix(1.6466174,0,0,1.3654876,-693.80794,-200.11678)"
       style="fill:none;stroke:#000000;stroke-width:0.23630263;stroke-miterlimit:4;stroke-opacity:1"
       d="m 1037.875,618.40253 c 0,2.83046 -1.9028,5.125 -4.25,5.125 -2.3472,0 -4.25,-2.29454 -4.25,-5.125 0,-2.83046 1.9028,-5.125 4.25,-5.125 2.3472,0 4.25,2.29454 4.25,5.125 z"
       id="path4300-2-7" />
    <path
       transform="matrix(1.6466174,0,0,1.3654876,-735.9733,-200.11678)"
       style="fill:none;stroke:#000000;stroke-width:0.23630263;stroke-miterlimit:4;stroke-opacity:1"
       d="m 1037.875,618.40253 c 0,2.83046 -1.9028,5.125 -4.25,5.125 -2.3472,0 -4.25,-2.29454 -4.25,-5.125 0,-2.83046 1.9028,-5.125 4.25,-5.125 2.3472,0 4.25,2.29454 4.25,5.125 z"
       id="path4300-2-7-7" />
    <path
       transform="matrix(1.6466174,0,0,1.3654876,-796.20954,-302.51835)"
       style="fill:none;stroke:#000000;stroke-width:0.23630263;stroke-miterlimit:4;stroke-opacity:1"
       d="m 1037.875,618.40253 c 0,2.83046 -1.9028,5.125 -4.25,5.125 -2.3472,0 -4.25,-2.29454 -4.25,-5.125 0,-2.83046 1.9028,-5.125 4.25,-5.125 2.3472,0 4.25,2.29454 4.25,5.125 z"
       id="path4300-6" />
    <path
       transform="matrix(1.6466174,0,0,1.3654876,-633.57178,-302.51835)"
       style="fill:none;stroke:#000000;stroke-width:0.23630263;stroke-miterlimit:4;stroke-opacity:1"
       d="m 1037.875,618.40253 c 0,2.83046 -1.9028,5.125 -4.25,5.125 -2.3472,0 -4.25,-2.29454 -4.25,-5.125 0,-2.83046 1.9028,-5.125 4.25,-5.125 2.3472,0 4.25,2.29454 4.25,5.125 z"
       id="path4300-2-6" />
    <path
       transform="matrix(1.6466174,0,0,1.3654876,-633.57178,-139.88056)"
       style="fill:none;stroke:#000000;stroke-width:0.23630263;stroke-miterlimit:4;stroke-opacity:1"
       d="m 1037.875,618.40253 c 0,2.83046 -1.9028,5.125 -4.25,5.125 -2.3472,0 -4.25,-2.29454 -4.25,-5.125 0,-2.83046 1.9028,-5.125 4.25,-5.125 2.3472,0 4.25,2.29454 4.25,5.125 z"
       id="path4300-2-7-3" />
    <path
       transform="matrix(1.6466174,0,0,1.3654876,-796.20954,-139.88056)"
       style="fill:none;stroke:#000000;stroke-width:0.23630263;stroke-miterlimit:4;stroke-opacity:1"
       d="m 1037.875,618.40253 c 0,2.83046 -1.9028,5.125 -4.25,5.125 -2.3472,0 -4.25,-2.29454 -4.25,-5.125 0,-2.83046 1.9028,-5.125 4.25,-5.125 2.3472,0 4.25,2.29454 4.25,5.125 z"
       id="path4300-2-7-7-6" />
    <path
       style="fill:none;stroke:#000000;stroke-width:0.35433072;stroke-linejoin:round;stroke-miterlimit:4;stroke-opacity:1;stroke-dasharray:none"
       d="m 1065.7454,315.46618 c 0,-3.87881 3.1444,-7.02321 7.0232,-7.02321 3.8788,0 7.0232,3.1444 7.0232,7.02321 0,3.87881 -3.1444,7.02323 -7.0232,7.02323 -3.8788,0 -7.0232,-3.14442 -7.0232,-7.02323 z"
       id="path5823" />
    <path
       style="fill:none;stroke:#000000;stroke-width:0.35433072;stroke-linejoin:round;stroke-miterlimit:4;stroke-opacity:1;stroke-dasharray:none"
       d="m 1083.2915,310.21804 20.0344,0 0,10.4939 -20.0344,0 z"
       id="path5821" />
    <path
       style="fill:none;stroke:#000000;stroke-width:0.35433072;stroke-linejoin:round;stroke-miterlimit:4;stroke-opacity:1;stroke-dasharray:none"
       d="m 1042.1419,310.21804 20.0344,0 0,10.4939 -20.0344,0 z"
       id="path5819" />
    <path
       style="fill:none;stroke:#000000;stroke-width:0.35433072;stroke-linejoin:round;stroke-miterlimit:4;stroke-opacity:1;stroke-dasharray:none"
       d="m 1115.2536,473.78794 c 5.889,0 10.6299,-4.7409 10.6299,-10.6299 l 0,-153.3386 c 0,-5.8889 -4.7409,-10.6299 -10.6299,-10.6299 l -85.0394,0 c -5.8889,0 -10.6299,4.741 -10.6299,10.6299 l 0,153.3386 c 0,5.889 4.741,10.6299 10.6299,10.6299 l 11.7904,0.15329 2,10.4888 16.0312,0 2,-10.4888 3.1208,-0.001 0,-11.19881 -7.0866,0 0,-12.40158 7.0866,0 0,-7.51574 14.8835,0 0,7.51574 7.0866,0 0,12.40158 -7.0866,0 0,11.19881 3.121,0.002 1.9997,10.4885 16.0313,0 2,-10.4888 z"
       id="path3117-2-9" />
    <path
       style="fill:none;stroke:#000000;stroke-width:0.35433071;stroke-linecap:butt;stroke-linejoin:miter;stroke-miterlimit:4;stroke-opacity:1;stroke-dasharray:none"
       d="m 1128.685,22.106771 0,124.639869 c 0,5.88897 -4.7409,10.62993 -10.6299,10.62993 l -16.3056,0.10895 -2,10.4888 -16.0313,0 -1.9997,-10.4885 -3.121,-0.002 0,-11.19881 7.0866,0 0,-12.40158 -7.0866,0 0,-7.51574 -14.8835,0 0,7.51574 -7.0866,0 0,12.40158 7.0866,0 0,11.19881 -3.1208,0.001 -2,10.4888 -16.0312,0 -2,-10.4888 -16.3056,-0.10825 c -5.889,0 -10.63,-4.74091 -10.63,-10.6299"
       id="path5815" />
    <path
       style="fill:none;stroke:#000000;stroke-width:0.35433071;stroke-linecap:butt;stroke-linejoin:miter;stroke-miterlimit:4;stroke-opacity:1;stroke-dasharray:none"
       d="m 1128.685,22.106781 c 0,-5.88897 -4.7409,-10.62993 -10.6299,-10.62993 l -16.3056,-0.12957 -2,-10.48879917 -16.0312,0 -2,10.48879917 -3.1208,10e-4 0,11.19881 7.0866,0 0,12.40157 -7.0866,0 0,7.51575 -14.8835,0 0,-7.51575 -7.0866,0 0,-12.40157 7.0866,0 0,-11.19881 -3.121,-0.002 -1.9997,-10.48849917 -16.0313,0 -2,10.48878917 -16.3056,0.13027 c -5.889,0 -10.63,4.74095 -10.63,10.62993 l 0,124.639869"
       id="path5813" />
    <path
       style="fill:none;stroke:#000000;stroke-width:0.35433071;stroke-linecap:butt;stroke-linejoin:miter;stroke-miterlimit:4;stroke-opacity:1;stroke-dasharray:none"
       d="m 1029.5463,107.43649 0,-46.014109 83.2189,0 0,46.014109 z"
       id="path5811" />
    <path
       style="fill:none;stroke:#000000;stroke-width:0.35433071;stroke-linecap:butt;stroke-linejoin:miter;stroke-miterlimit:4;stroke-opacity:1;stroke-dasharray:none"
       d="m 1024.0006,80.670871 c 2.0758,0 3.7586,1.68277 3.7586,3.75857 0,2.0758 -1.6828,3.75858 -3.7586,3.75858 -2.0758,0 -3.7585,-1.68278 -3.7585,-3.75858 0,-2.0758 1.6827,-3.75857 3.7585,-3.75857 z"
       id="path5809" />
    <path
       style="fill:none;stroke:#000000;stroke-width:0.35433071;stroke-linecap:butt;stroke-linejoin:miter;stroke-miterlimit:4;stroke-opacity:1;stroke-dasharray:none"
       d="m 1119.0692,80.644271 c 2.0758,0 3.7585,1.68277 3.7585,3.75857 0,2.0758 -1.6827,3.75858 -3.7585,3.75858 -2.0758,0 -3.7586,-1.68278 -3.7586,-3.75858 0,-2.0758 1.6828,-3.75857 3.7586,-3.75857 z"
       id="path1966-2-6-8-6-7-7-7" />
    <path
       style="fill:none;stroke:#000000;stroke-width:0.35433072;stroke-miterlimit:4;stroke-opacity:1;stroke-dasharray:none"
       d="m 746.34092,184.22703 c 0,0.87655 -0.71058,1.58713 -1.58714,1.58713 -0.87653,0 -1.58712,-0.71058 -1.58712,-1.58713 0,-0.87653 0.71059,-1.58712 1.58712,-1.58712 0.87656,0 1.58714,0.71059 1.58714,1.58712 z"
       id="path5220" />
    <path
       style="fill:none;stroke:#000000;stroke-width:0.35433072;stroke-miterlimit:4;stroke-opacity:1;stroke-dasharray:none"
       d="m 760.51415,184.22703 c 0,0.87655 -0.71058,1.58713 -1.58714,1.58713 -0.87653,0 -1.58712,-0.71058 -1.58712,-1.58713 0,-0.87653 0.71059,-1.58712 1.58712,-1.58712 0.87656,0 1.58714,0.71059 1.58714,1.58712 z"
       id="path5216" />
    <path
       style="fill:none;stroke:#000000;stroke-width:0.35433072;stroke-miterlimit:4;stroke-opacity:1;stroke-dasharray:none"
       d="m 732.16769,184.22703 c 0,0.87655 -0.71058,1.58713 -1.58714,1.58713 -0.87653,0 -1.58712,-0.71058 -1.58712,-1.58713 0,-0.87653 0.71059,-1.58712 1.58712,-1.58712 0.87656,0 1.58714,0.71059 1.58714,1.58712 z"
       id="path5214" />
    <path
       style="fill:none;stroke:#000000;stroke-width:0.35433072;stroke-miterlimit:4;stroke-opacity:1;stroke-dasharray:none"
       d="m 658.28976,184.22703 c 0,0.87655 -0.71059,1.58713 -1.58714,1.58713 -0.87654,0 -1.58713,-0.71058 -1.58713,-1.58713 0,-0.87653 0.71059,-1.58712 1.58713,-1.58712 0.87655,0 1.58714,0.71059 1.58714,1.58712 z"
       id="path5212" />
    <path
       style="fill:none;stroke:#000000;stroke-width:0.35433072;stroke-miterlimit:4;stroke-opacity:1;stroke-dasharray:none"
       d="m 672.46299,184.22703 c 0,0.87655 -0.71059,1.58713 -1.58714,1.58713 -0.87654,0 -1.58713,-0.71058 -1.58713,-1.58713 0,-0.87653 0.71059,-1.58712 1.58713,-1.58712 0.87655,0 1.58714,0.71059 1.58714,1.58712 z"
       id="path5210" />
    <path
       style="fill:none;stroke:#000000;stroke-width:0.35433072;stroke-miterlimit:4;stroke-opacity:1;stroke-dasharray:none"
       d="m 686.63621,184.22703 c 0,0.87655 -0.71058,1.58713 -1.58714,1.58713 -0.87653,0 -1.58712,-0.71058 -1.58712,-1.58713 0,-0.87653 0.71059,-1.58712 1.58712,-1.58712 0.87656,0 1.58714,0.71059 1.58714,1.58712 z"
       id="path5206" />
    <path
       style="fill:none;stroke:#000000;stroke-width:0.35433072;stroke-miterlimit:4;stroke-opacity:1;stroke-dasharray:none"
       d="m 719.02971,184.22703 c 0,6.2342 -5.05381,11.28803 -11.28803,11.28803 -6.2342,0 -11.28801,-5.05383 -11.28801,-11.28803 0,-6.23421 5.05381,-11.28801 11.28801,-11.28801 6.23422,0 11.28803,5.0538 11.28803,11.28801 z"
       id="path4017-3-0-4" />
    <path
       style="fill:none;stroke:#000000;stroke-width:0.35433072;stroke-miterlimit:4;stroke-opacity:1;stroke-dasharray:none"
       d="m 666.97673,184.22702 c 0,1.76042 -1.42709,3.18751 -3.18752,3.18751 -1.76037,0 -3.18748,-1.42709 -3.18748,-3.18751 0,-1.76037 1.42711,-3.18749 3.18748,-3.18749 1.76043,0 3.18752,1.42712 3.18752,3.18749 z"
       id="path5202-9" />
    <path
       style="fill:none;stroke:#000000;stroke-width:0.35433072;stroke-miterlimit:4;stroke-opacity:1;stroke-dasharray:none"
       d="m 681.14996,184.22702 c 0,1.76042 -1.42709,3.18751 -3.18752,3.18751 -1.76037,0 -3.18748,-1.42709 -3.18748,-3.18751 0,-1.76037 1.42711,-3.18749 3.18748,-3.18749 1.76043,0 3.18752,1.42712 3.18752,3.18749 z"
       id="path5202-9-0" />
    <path
       style="fill:none;stroke:#000000;stroke-width:0.35433072;stroke-miterlimit:4;stroke-opacity:1;stroke-dasharray:none"
       d="m 740.85469,184.22702 c 0,1.76042 -1.42709,3.18751 -3.18752,3.18751 -1.76037,0 -3.18748,-1.42709 -3.18748,-3.18751 0,-1.76037 1.42711,-3.18749 3.18748,-3.18749 1.76043,0 3.18752,1.42712 3.18752,3.18749 z"
       id="path5202-9-0-8" />
    <path
       style="fill:none;stroke:#000000;stroke-width:0.35433072;stroke-miterlimit:4;stroke-opacity:1;stroke-dasharray:none"
       d="m 755.02792,184.22702 c 0,1.76042 -1.42709,3.18751 -3.18752,3.18751 -1.76037,0 -3.18748,-1.42709 -3.18748,-3.18751 0,-1.76037 1.42711,-3.18749 3.18748,-3.18749 1.76043,0 3.18752,1.42712 3.18752,3.18749 z"
       id="path5202-9-0-5" />
    <path
       style="fill:none;stroke:#000000;stroke-width:0.35433072;stroke-miterlimit:4;stroke-opacity:1;stroke-dasharray:none"
       d="m 726.68146,184.22702 c 0,1.76042 -1.42709,3.18751 -3.18752,3.18751 -1.76037,0 -3.18748,-1.42709 -3.18748,-3.18751 0,-1.76037 1.42711,-3.18749 3.18748,-3.18749 1.76043,0 3.18752,1.42712 3.18752,3.18749 z"
       id="path5202-9-0-8-2" />
    <path
       style="fill:none;stroke:#000000;stroke-width:0.35433072;stroke-miterlimit:4;stroke-opacity:1;stroke-dasharray:none"
       d="m 695.32321,184.22702 c 0,1.76042 -1.42709,3.18751 -3.18752,3.18751 -1.76037,0 -3.18748,-1.42709 -3.18748,-3.18751 0,-1.76037 1.42711,-3.18749 3.18748,-3.18749 1.76043,0 3.18752,1.42712 3.18752,3.18749 z"
       id="path5202-9-0-8-3" />
    <path
       style="fill:none;stroke:#000000;stroke-width:0.35433072;stroke-linecap:butt;stroke-linejoin:miter;stroke-miterlimit:4;stroke-opacity:1;stroke-dasharray:none"
       d="m 722.42558,228.19924 2,10.4888 16.0312,0 2,-10.4888 3.12081,-0.001 0,-11.19881 -7.0866,0 0,-12.40158 7.0866,0 0,-7.51574 14.88347,0 0,7.51574 7.08663,0 0,12.40158 -7.08663,0 0,11.19881 3.12102,0.002 1.9997,10.4885 16.0313,0 2,-10.4888 1.05369,0.0197 c 4.4299,0 7.99622,-3.54058 7.99622,-7.93853 l 0,-60.3232 c 0,-4.39794 -3.56632,-7.93852 -7.99622,-7.93852 l -153.7039,0 c -4.4299,0 -7.99619,3.54058 -7.99619,7.93852 l 0,60.3232 c 0,4.39795 3.56629,7.93853 7.99619,7.93853 l 2.61178,-0.0204 2,10.4888 16.0312,0 2,-10.4888 3.12081,-0.001 0,-11.19881 -7.0866,0 0,-12.40158 7.0866,0 0,-7.51574 14.88347,0 0,7.51574 7.08663,0 0,12.40158 -7.08663,0 0,11.19881 3.12102,0.002 1.9997,10.4885 16.0313,0 2,-10.4888 z"
       id="path1966-2-6-8-6-7-7-6-4" />
    <path
       style="fill:none;stroke:#000000;stroke-width:0.35433072;stroke-linejoin:round;stroke-miterlimit:4;stroke-opacity:1;stroke-dasharray:none"
       d="m 579.78181,148.10202 0,-20.03438 10.49449,0 0,20.03438 z"
       id="rect4409-0" />
    <path
       style="fill:none;stroke:#000000;stroke-width:0.35433072;stroke-linejoin:round;stroke-miterlimit:4;stroke-opacity:1;stroke-dasharray:none"
       d="m 579.78181,189.25163 0,-20.03439 10.49449,0 0,20.03439 z"
       id="rect4409-9-1" />
    <path
       style="fill:none;stroke:#000000;stroke-width:0.35433072;stroke-miterlimit:4;stroke-opacity:1;stroke-dasharray:none"
       d="m 426.75612,210.22229 0,-191.798095 c 0,-5.5701 5.1742,-10.0543 11.60135,-10.0543 l 153.27097,0 c 6.4272,0 11.6014,4.4842 11.6014,10.0543 l 0,191.798095 c 0,5.5701 -5.1742,10.05431 -11.6014,10.05431 l -153.27097,0 c -6.42715,0 -11.60135,-4.4842 -11.60135,-10.05431 z"
       id="rect4552" />
    <path
       style="fill:none;stroke:#000000;stroke-width:0.35433072;stroke-miterlimit:4;stroke-opacity:1;stroke-dasharray:none"
       d="m 478.74628,134.19896 c 15.44128,0 27.95891,12.51767 27.95891,27.95898 0,15.44116 -12.51763,27.95884 -27.95891,27.95884 -15.44129,0 -27.95892,-12.51768 -27.95892,-27.95884 0,-15.4413 12.51763,-27.95897 27.95892,-27.95897 z"
       id="path4564" />
    <path
       style="fill:none;stroke:#000000;stroke-width:0.35433072;stroke-miterlimit:4;stroke-opacity:1;stroke-dasharray:none"
       d="m 478.74628,38.529666 c 15.44128,0 27.95891,12.517671 27.95891,27.958983 0,15.441156 -12.51763,27.958827 -27.95891,27.958827 -15.44129,0 -27.95892,-12.517671 -27.95892,-27.958827 0,-15.441312 12.51763,-27.958983 27.95892,-27.958983 z"
       id="path4564-9" />
    <path
       style="fill:#ff0000;fill-rule:evenodd;stroke:#000000;stroke-width:0.35433072;stroke-linecap:butt;stroke-linejoin:miter;stroke-miterlimit:4;stroke-opacity:1;stroke-dasharray:none"
       d="m 529.06572,58.507195 0,0.215 0.2149,0 0,0.2149 0,0 0.215,0 0,0 0,0 0,0.215 0,0 0.2149,0 0,0.215 0,0 0.215,0 0,0.4299 0,0.2149 -0.215,0 -0.2149,-0.2149 -0.215,0 -0.2149,0 0,-0.215 0,0 -0.215,0 0,-0.2149 0,0 -0.2149,0 0,0 0,0 -0.215,-0.215 -0.215,-0.215 0,0 0,0 -0.2149,0 q 0,0 -0.4299,-0.6448 -0.6449,-0.4299 -1.5047,-2.1495 -0.8598,-1.7197 -0.8598,-3.6542 0,-2.1496 0.6449,-3.4393 0.6448,-1.5046 1.9345,-3.2243 1.2898,-1.5046 3.2243,-3.0093 1.9346,-1.5047 4.0841,-2.1495 2.3645,-0.6449 4.729,-0.6449 2.5794,0 4.729,0.6449 2.3644,0.6448 4.7289,2.3644 2.3645,1.2898 3.8692,3.0094 1.5046,1.7196 3.0093,4.514 1.7196,2.7944 2.5794,6.4486 1.2897,3.6542 1.7196,7.9532 0.43,4.0841 0,9.4579 0,5.5888 -1.2897,11.6075 -1.2897,6.0187 -3.0093,11.1775 -1.7196,5.158905 -3.8692,9.028005 -2.1495,3.6542 -3.8691,5.5888 -1.7196,2.1495 -1.9346,2.5794 -0.2149,0.4299 0.4299,1.2898 0.6449,0.6448 2.7944,3.4392 2.1495,2.7944 3.8692,6.6635 1.7196,3.86919 3.4392,9.24299 1.7196,5.15891 2.7944,11.6074 1.0748,6.4486 1.2897,10.74771 0.215,4.0841 -0.2149,6.01859 0,1.9346 -1.0748,6.0187 -1.0748,4.29911 -2.3645,7.30841 -1.2897,2.79439 -2.5794,4.729 -1.7196,1.9345 -3.6542,3.4392 -2.1495,1.7196 -4.729,2.5794 -2.5794,0.8599 -5.3738,1.0748 -2.5794,0.215 -4.299,-0.2149 -1.5047,-0.43 -3.6542,-1.2898 -2.1496,-1.28971 -2.7944,-1.93451 -0.8598,-0.8598 -1.0748,-0.8598 -0.2149,0 -0.4299,-0.43 -0.2149,-0.4299 -1.2897,-2.3644 -1.0748,-1.9346 -1.0748,-4.2991 0,-2.5794 0.6449,-4.299 l 0.6448,-1.7197 0.215,0 0,0 0,-0.2149 0.2149,0 0,0 0,-0.215 0,0 0,0 0.215,-0.2149 0.215,-0.215 0,0 0,0 0,-0.2149 0,0 0.2149,0 0,-0.215 0.215,0 0.2149,0 0,0.4299 -0.2149,0.6449 0,0.2149 0,0.215 -0.215,0 0,0.2149 0,0 -0.2149,0 0,0.8599 q -0.43,0.6448 -0.215,2.3644 0.215,1.7197 1.0748,3.0094 1.0747,1.0747 2.5794,1.9345 1.5047,0.85991 4.2991,0.85991 3.0093,0 4.0841,-0.85991 1.0747,-0.6448 1.7196,-1.7196 0.6448,-1.0747 0.6448,-3.0093 0,-2.1495 -1.2897,-5.1589 -1.2897,-3.2243 -4.0841,-8.1682 -2.7944,-5.1588 -5.8037,-10.1028 -3.0093,-5.1588 -4.729,-8.813 -1.7196,-3.8692 -2.1495,-6.4486 -0.8598,-2.79439 -0.6449,-6.23359 0.215,-3.4393 1.0748,-6.6636 1.2897,-3.2242 2.7944,-5.5887 1.5047,-2.5795 1.7196,-2.7944 0.215,-0.215 -1.5047,-2.5794 -1.7196,-2.3645 -2.5794,-5.5888 -1.2897,-3.2243 -1.2897,-4.729 -0.4299,-1.5046 -0.215,-5.373805 0.215,-3.8691 0.8599,-6.8785 0.6448,-2.7944 2.7943,-6.8785 2.1496,-4.0841 7.3084,-11.8224 5.1589,-7.7382 6.0187,-10.5326 1.2897,-2.5795 1.2897,-4.9439 0,-2.3645 -0.8598,-4.0841 -0.8598,-1.7197 -1.7196,-2.5795 -1.0748,-0.8598 -3.6542,-0.8598 -2.5794,0 -4.0841,0.8598 -1.5047,0.8598 -2.5794,1.9346 -0.8598,1.0748 -1.2898,1.9346 -0.4299,1.0747 -0.4299,2.5794 0,1.2897 0.6449,2.1495 0.6449,0.6449 0.6449,0.8598 z"
       id="path6" />
    <path
       style="fill:none;stroke:#000000;stroke-width:0.35433072;stroke-linejoin:round;stroke-miterlimit:4;stroke-opacity:1;stroke-dasharray:none"
       d="m 585.02913,165.64813 c -3.87881,0 -7.02321,-3.1444 -7.02321,-7.0232 0,-3.8788 3.1444,-7.0232 7.02321,-7.0232 3.87881,0 7.02323,3.1444 7.02323,7.0232 0,3.8788 -3.14442,7.0232 -7.02323,7.0232 z"
       id="path3117-2-3" />
    <path
       style="fill:none;stroke:#000000;stroke-width:0.35433072;stroke-linejoin:round;stroke-miterlimit:4;stroke-opacity:1;stroke-dasharray:none"
       d="m 590.20491,39.36022 0,20.03439 -10.4962,0 0,-20.03439 z"
       id="path3121-5-7" />
    <path
       style="fill:none;stroke:#000000;stroke-width:0.35433072;stroke-linejoin:round;stroke-miterlimit:4;stroke-opacity:1;stroke-dasharray:none"
       d="m 590.20491,80.50983 0,20.03438 -10.4962,0 0,-20.03438 z"
       id="path3119-3-8" />
    <path
       style="fill:none;stroke:#000000;stroke-width:0.35433072;stroke-linejoin:round;stroke-miterlimit:4;stroke-opacity:1;stroke-dasharray:none"
       d="m 584.95681,76.97543 c -3.87881,0 -7.02321,-3.1444 -7.02321,-7.0232 0,-3.8788 3.1444,-7.0232 7.02321,-7.0232 3.87881,0 7.02323,3.1444 7.02323,7.0232 0,3.8788 -3.14442,7.0232 -7.02323,7.0232 z"
       id="path3117-2-0" />
    <path
       style="fill:none;stroke:#000000;stroke-width:0.35433071;stroke-linecap:butt;stroke-linejoin:miter;stroke-miterlimit:4;stroke-opacity:1;stroke-dasharray:none"
       d="m 514.0302,727.9187 -0.091,-25.39983 10.4888,-2 0,-16.0312 -10.4888,-2 -10e-4,-3.12081 -11.1988,0 0,7.0866 -12.4016,0 0,-7.0866 -7.5158,0 0,-14.88347 7.5158,0 0,-7.08663 12.4016,0 0,7.08663 11.1988,0 0,-3.12102 10.4885,-1.9997 0,-16.0313 -10.4888,-2 0.012,-1.70301 c -59.2757,1.6403 -97.3324,2.07984 -97.2331,88.29034 l 9.6033,-0.0749 2,10.68008 24.0312,0 2.1581,-10.68008 4.9627,0.0501 0,-11.05905 -7.0866,0 0,-12.40158 7.0866,0 0,-7.51574 14.8834,0 0,7.51574 7.0867,0 0,12.40158 -7.0867,0 0,11.05905 4.957,-0.0498 2.1638,10.67978 24.0312,0 2,-10.68008 z"
       id="path1966-2-6-8-6-7-1" />
    <path
       style="fill:none;stroke:#000000;stroke-width:0.35433072;stroke-linejoin:round;stroke-miterlimit:4;stroke-opacity:1;stroke-dasharray:none"
       d="m 1119.8267,219.37342 c 3.8788,0 7.0232,3.1444 7.0232,7.0232 0,3.8788 -3.1444,7.0232 -7.0232,7.0232 -3.8788,0 -7.0233,-3.1444 -7.0233,-7.0232 0,-3.8788 3.1445,-7.0232 7.0233,-7.0232 z"
       id="path5755" />
    <path
       style="fill:none;stroke:#000000;stroke-width:0.35433072;stroke-linejoin:round;stroke-miterlimit:4;stroke-opacity:1;stroke-dasharray:none"
       d="m 1125.0748,236.91948 0,20.0344 -10.4939,0 0,-20.0344 z"
       id="path5753" />
    <path
       style="fill:none;stroke:#000000;stroke-width:0.35433072;stroke-linejoin:round;stroke-miterlimit:4;stroke-opacity:1;stroke-dasharray:none"
       d="m 1125.0748,195.76988 0,20.0344 -10.4939,0 0,-20.0344 z"
       id="path5751" />
    <path
       style="fill:none;stroke:#000000;stroke-width:0.35433072;stroke-linejoin:round;stroke-miterlimit:4;stroke-opacity:1;stroke-dasharray:none"
       d="m 961.5049,268.88158 c 0,5.889 4.7409,10.6299 10.6299,10.6299 l 153.3386,0 c 5.8889,0 10.6299,-4.7409 10.6299,-10.6299 l 0,-85.0394 c 0,-5.8889 -4.741,-10.6299 -10.6299,-10.6299 l -153.3386,0 c -5.889,0 -10.6299,4.741 -10.6299,10.6299 l -0.15329,11.79042 -10.4888,2 0,16.0312 10.4888,2 10e-4,3.12081 11.19881,0 0,-7.0866 12.40158,0 0,7.0866 7.51574,0 0,14.88347 -7.51574,0 0,7.08663 -12.40158,0 0,-7.08663 -11.19881,0 -0.002,3.12102 -10.4885,1.9997 0,16.0313 10.4888,2 z"
       id="path3117-2-9-9" />
    <path
       style="fill:none;stroke:#000000;stroke-width:0.35433072;stroke-linejoin:round;stroke-miterlimit:4;stroke-opacity:1;stroke-dasharray:none"
       d="m 791.80117,83.08122 c 3.87881,0 7.02321,3.1444 7.02321,7.02323 0,3.87881 -3.1444,7.02322 -7.02321,7.02322 -3.87882,0 -7.02324,-3.14441 -7.02324,-7.02322 0,-3.87883 3.14442,-7.02323 7.02324,-7.02323 z"
       id="path5747" />
    <path
       style="fill:none;stroke:#000000;stroke-width:0.35433072;stroke-linejoin:round;stroke-miterlimit:4;stroke-opacity:1;stroke-dasharray:none"
       d="m 646.68863,69.73856 c 3.91383,0 7.09375,3.17992 7.09375,7.09375 0,3.91383 -3.17992,7.09375 -7.09375,7.09375 -3.91383,0 -7.0625,-3.17992 -7.0625,-7.09375 0,-3.91383 3.14867,-7.09375 7.0625,-7.09375 z"
       id="path5745" />
    <path
       style="fill:none;stroke:#000000;stroke-width:0.35433072;stroke-linejoin:round;stroke-miterlimit:4;stroke-opacity:1;stroke-dasharray:none"
       d="m 770.25114,69.67606 c 3.91383,0 7.0625,3.17992 7.0625,7.09375 0,3.91383 -3.14867,7.09375 -7.0625,7.09375 -3.91383,0 -7.09375,-3.17992 -7.09375,-7.09375 0,-3.91383 3.17992,-7.09375 7.09375,-7.09375 z"
       id="path5743" />
    <path
       style="fill:none;stroke:#000000;stroke-width:0.35433072;stroke-linejoin:round;stroke-miterlimit:4;stroke-opacity:1;stroke-dasharray:none"
       d="m 610.96988,37.95731 5.9e-4,106.30426 195.00001,0 -5.9e-4,-106.30426 -59.625,0 0,5.875 c 7.72775,8.86986 12.5625,20.34333 12.5625,33.03125 0,27.88603 -22.58272,50.46875 -50.46876,50.46875 -27.88603,0 -50.5,-22.58272 -50.5,-50.46875 0,-12.68792 4.83475,-24.16139 12.5625,-33.03125 l 0,-5.875 z"
       id="path5741" />
    <path
       style="fill:none;stroke:#000000;stroke-width:0.35433072;stroke-linejoin:round;stroke-miterlimit:4;stroke-opacity:1;stroke-dasharray:none"
       d="m 797.049,102.62734 0,28.03438 -10.49462,0 0,-28.03438 z"
       id="path5739" />
    <path
       style="fill:none;stroke:#000000;stroke-width:0.35433072;stroke-linejoin:round;stroke-miterlimit:4;stroke-opacity:1;stroke-dasharray:none"
       d="m 797.049,49.47773 0,28.03439 -10.49462,0 0,-28.03439 z"
       id="path5737" />
    <path
       style="fill:none;stroke:#000000;stroke-width:0.35433072;stroke-linejoin:round;stroke-miterlimit:4;stroke-opacity:1;stroke-dasharray:none"
       d="m 626.11658,83.08122 c 3.87881,0 7.02321,3.1444 7.02321,7.02323 0,3.87881 -3.1444,7.02322 -7.02321,7.02322 -3.87882,0 -7.02324,-3.14441 -7.02324,-7.02322 0,-3.87883 3.14442,-7.02323 7.02324,-7.02323 z"
       id="path5735" />
    <path
       style="fill:none;stroke:#000000;stroke-width:0.35433072;stroke-linejoin:round;stroke-miterlimit:4;stroke-opacity:1;stroke-dasharray:none"
       d="m 620.86925,77.54684 0,-28.03439 10.49462,0 0,28.03439 z"
       id="path5733" />
    <path
       style="fill:none;stroke:#000000;stroke-width:0.35433072;stroke-linejoin:round;stroke-miterlimit:4;stroke-opacity:1;stroke-dasharray:none"
       d="m 620.86925,130.69644 0,-28.03439 10.49462,0 0,28.03439 z"
       id="rect4409-9-5-7-8-3" />
    <path
       style="fill:none;stroke:#000000;stroke-width:0.35433072;stroke-linejoin:round;stroke-miterlimit:4;stroke-opacity:1;stroke-dasharray:none"
       d="m 694.41411,59.30011 c -3.87881,0 -7.02321,-3.1444 -7.02321,-7.02323 0,-3.87881 3.1444,-7.02322 7.02321,-7.02322 3.87882,0 7.02324,3.14441 7.02324,7.02322 0,3.87883 -3.14442,7.02323 -7.02324,7.02323 z"
       id="path5729" />
    <path
       style="fill:none;stroke:#000000;stroke-width:0.35433072;stroke-linejoin:round;stroke-miterlimit:4;stroke-opacity:1;stroke-dasharray:none"
       d="m 839.52665,72.64277 c -3.91383,0 -7.09375,-3.17992 -7.09375,-7.09375 0,-3.91383 3.17992,-7.09375 7.09375,-7.09375 3.91383,0 7.0625,3.17992 7.0625,7.09375 0,3.91383 -3.14867,7.09375 -7.0625,7.09375 z"
       id="path5727" />
    <path
       style="fill:none;stroke:#000000;stroke-width:0.35433072;stroke-linejoin:round;stroke-miterlimit:4;stroke-opacity:1;stroke-dasharray:none"
       d="m 715.96414,72.70527 c -3.91383,0 -7.0625,-3.17992 -7.0625,-7.09375 0,-3.91383 3.14867,-7.09375 7.0625,-7.09375 3.91383,0 7.09375,3.17992 7.09375,7.09375 0,3.91383 -3.17992,7.09375 -7.09375,7.09375 z"
       id="path5725" />
    <path
       style="fill:none;stroke:#000000;stroke-width:0.35433072;stroke-linejoin:round;stroke-miterlimit:4;stroke-opacity:1;stroke-dasharray:none"
       d="m 875.2454,104.42402 -5.9e-4,-106.30426 -195.00001,0 5.9e-4,106.30426 59.625,0 0,-5.875 c -7.72775,-8.86986 -12.5625,-20.34333 -12.5625,-33.03125 0,-27.88603 22.58272,-50.46875 50.46876,-50.46875 27.88603,0 50.5,22.58272 50.5,50.46875 0,12.68792 -4.83475,24.16139 -12.5625,33.03125 l 0,5.875 z"
       id="path5723" />
    <path
       style="fill:none;stroke:#000000;stroke-width:0.35433072;stroke-linejoin:round;stroke-miterlimit:4;stroke-opacity:1;stroke-dasharray:none"
       d="m 689.16628,39.75399 0,-28.03438 10.49462,0 0,28.03438 z"
       id="path5721" />
    <path
       style="fill:none;stroke:#000000;stroke-width:0.35433072;stroke-linejoin:round;stroke-miterlimit:4;stroke-opacity:1;stroke-dasharray:none"
       d="m 689.16628,92.9036 0,-28.03439 10.49462,0 0,28.03439 z"
       id="path5719" />
    <path
       style="fill:none;stroke:#000000;stroke-width:0.35433072;stroke-linejoin:round;stroke-miterlimit:4;stroke-opacity:1;stroke-dasharray:none"
       d="m 860.0987,59.30011 c -3.87881,0 -7.02321,-3.1444 -7.02321,-7.02323 0,-3.87881 3.1444,-7.02322 7.02321,-7.02322 3.87882,0 7.02324,3.14441 7.02324,7.02322 0,3.87883 -3.14442,7.02323 -7.02324,7.02323 z"
       id="path5717" />
    <path
       style="fill:none;stroke:#000000;stroke-width:0.35433072;stroke-linejoin:round;stroke-miterlimit:4;stroke-opacity:1;stroke-dasharray:none"
       d="m 865.34603,64.83449 0,28.03439 -10.49462,0 0,-28.03439 z"
       id="path5715" />
    <path
       style="fill:none;stroke:#000000;stroke-width:0.35433072;stroke-linejoin:round;stroke-miterlimit:4;stroke-opacity:1;stroke-dasharray:none"
       d="m 865.34603,11.68489 0,28.03439 -10.49462,0 0,-28.03439 z"
       id="rect4409-9-5-7-8-3-0" />
    <path
       style="fill:none;stroke:#000000;stroke-width:0.35433071;stroke-linecap:butt;stroke-linejoin:miter;stroke-miterlimit:4;stroke-opacity:1;stroke-dasharray:none"
       d="m 915.50658,101.92963 25.39983,-0.091 2,10.4888 16.0312,0 2,-10.4888 3.12081,0 0,-11.198795 -7.0866,0 0,-12.40164 7.0866,0 0,-7.5158 14.88342,0 0,7.5158 7.0866,0 0,12.40164 -7.0866,0 0,11.198795 3.121,0 1.9997,10.4885 16.03136,0 2,-10.4888 1.703,0.012 C 1002.1566,42.574595 1001.7171,4.5178943 915.50658,4.6171943 l 0.0749,9.6032997 -10.68008,2.000001 0,24.0312 10.68008,2.1581 -0.0501,4.9627 11.05905,0 0,-7.0866 12.40158,0 0,7.0866 7.51574,0 0,14.8834 -7.51574,0 0,7.0867 -12.40158,0 0,-7.0867 -11.05905,0 0.0498,4.957 -10.67978,2.1638 0,24.03134 10.68008,2 z"
       id="path1966-2-6-8-6-7-1-9" />
    <path
       style="fill:none;stroke:#000000;stroke-width:0.35433071;stroke-linecap:butt;stroke-linejoin:miter;stroke-miterlimit:4;stroke-opacity:1;stroke-dasharray:none"
       d="m 522.09406,616.17352 -25.39983,-0.091 -2,10.4888 -16.0312,0 -2,-10.4888 -3.12081,0 0,-11.1989 7.0866,0 0,-12.4015 -7.0866,0 0,-7.5158 -14.88347,0 0,7.5158 -7.08663,0 0,12.4015 7.08663,0 0,11.1989 -3.12102,0 -1.9997,10.4885 -16.0313,0 -2,-10.4888 -1.70301,0.012 c 1.6403,-59.2757 2.07984,-97.3324 88.29034,-97.2331 l -0.0749,9.6032 10.68008,2 0,24.0313 -10.68008,2.1581 0.0501,4.9626 -11.05905,0 0,-7.0866 -12.40158,0 0,7.0866 -7.51574,0 0,14.8835 7.51574,0 0,7.0866 12.40158,0 0,-7.0866 11.05905,0 -0.0498,4.957 10.67978,2.1638 0,24.0312 -10.68008,2 z"
       id="path1966-2-6-8-6-7-1-6" />
    <path
       style="fill:none;stroke:#000000;stroke-width:0.35433071;stroke-linecap:butt;stroke-linejoin:miter;stroke-miterlimit:4;stroke-opacity:1;stroke-dasharray:none"
       d="m 922.60173,210.6488 -25.3998,-0.091 -2,10.4888 -16.0312,0 -2,-10.4888 -3.1208,-10e-4 0,-11.1988 7.0866,0 0,-12.4016 -7.0866,0 0,-7.5157 -14.8834,0 0,7.5157 -7.0867,0 0,12.4016 7.0867,0 0,11.1988 -3.1211,0 -1.9997,10.4885 -16.0313,0 -2,-10.4888 -1.703,0.012 c 1.6403,-59.2757 2.0799,-97.3324 88.2903,-97.2331 l -0.075,9.6033 10.6801,2 0,24.0313 -10.6801,2.158 0.05,4.9627 -11.059,0 0,-7.0866 -12.4016,0 0,7.0866 -7.5157,0 0,14.8835 7.5157,0 0,7.0866 12.4016,0 0,-7.0866 11.059,0 -0.05,4.957 10.6798,2.1638 0,24.0312 -10.6801,2 z"
       id="path1966-2-6-8-6-7-1-6-2" />
    <path
       style="fill:none;stroke:#000000;stroke-width:0.35433072;stroke-miterlimit:4;stroke-opacity:1;stroke-dasharray:none"
       d="m 702.00548,367.70416 c 0,78.11557 -63.3252,141.44074 -141.4408,141.44074 -78.11547,0 -141.44067,-63.32517 -141.44067,-141.44074 0,-78.11557 63.3252,-141.44074 141.44067,-141.44074 78.1156,0 141.4408,63.32517 141.4408,141.44074 z"
       id="path5705" />
    <path
       style="fill:none;stroke:#000000;stroke-width:0.35433072;stroke-miterlimit:4;stroke-opacity:1;stroke-dasharray:none"
       d="m 553.50228,362.36041 c -1.1304,1.48734 -1.7813,3.33148 -1.7813,5.34375 0,1.99957 0.6666,3.85791 1.7813,5.34375 30.8154,0 -18.3309,0 14.125,0 1.1146,-1.48584 1.7812,-3.34418 1.7812,-5.34375 0,-2.01227 -0.6508,-3.85641 -1.7812,-5.34375 -37.2468,0 67.9752,0 -14.125,0 z"
       id="path4212-3-3" />
    <path
       transform="matrix(1.6466174,0,0,1.3654876,-1162.5028,-497.7995)"
       style="fill:none;stroke:#000000;stroke-width:0.23630263;stroke-miterlimit:4;stroke-opacity:1"
       d="m 1037.875,618.40253 c 0,2.83046 -1.9028,5.125 -4.25,5.125 -2.3472,0 -4.25,-2.29454 -4.25,-5.125 0,-2.83046 1.9028,-5.125 4.25,-5.125 2.3472,0 4.25,2.29454 4.25,5.125 z"
       id="path4300-1" />
    <path
       transform="matrix(1.6466174,0,0,1.3654876,-1120.3375,-497.7995)"
       style="fill:none;stroke:#000000;stroke-width:0.23630263;stroke-miterlimit:4;stroke-opacity:1"
       d="m 1037.875,618.40253 c 0,2.83046 -1.9028,5.125 -4.25,5.125 -2.3472,0 -4.25,-2.29454 -4.25,-5.125 0,-2.83046 1.9028,-5.125 4.25,-5.125 2.3472,0 4.25,2.29454 4.25,5.125 z"
       id="path4300-2-0" />
    <path
       transform="matrix(1.6466174,0,0,1.3654876,-1120.3375,-455.63415)"
       style="fill:none;stroke:#000000;stroke-width:0.23630263;stroke-miterlimit:4;stroke-opacity:1"
       d="m 1037.875,618.40253 c 0,2.83046 -1.9028,5.125 -4.25,5.125 -2.3472,0 -4.25,-2.29454 -4.25,-5.125 0,-2.83046 1.9028,-5.125 4.25,-5.125 2.3472,0 4.25,2.29454 4.25,5.125 z"
       id="path4300-2-7-0" />
    <path
       transform="matrix(1.6466174,0,0,1.3654876,-1162.5028,-455.63415)"
       style="fill:none;stroke:#000000;stroke-width:0.23630263;stroke-miterlimit:4;stroke-opacity:1"
       d="m 1037.875,618.40253 c 0,2.83046 -1.9028,5.125 -4.25,5.125 -2.3472,0 -4.25,-2.29454 -4.25,-5.125 0,-2.83046 1.9028,-5.125 4.25,-5.125 2.3472,0 4.25,2.29454 4.25,5.125 z"
       id="path4300-2-7-7-5" />
    <path
       transform="matrix(1.6466174,0,0,1.3654876,-1222.7391,-558.03572)"
       style="fill:none;stroke:#000000;stroke-width:0.23630263;stroke-miterlimit:4;stroke-opacity:1"
       d="m 1037.875,618.40253 c 0,2.83046 -1.9028,5.125 -4.25,5.125 -2.3472,0 -4.25,-2.29454 -4.25,-5.125 0,-2.83046 1.9028,-5.125 4.25,-5.125 2.3472,0 4.25,2.29454 4.25,5.125 z"
       id="path4300-6-7" />
    <path
       transform="matrix(1.6466174,0,0,1.3654876,-1060.1013,-558.03572)"
       style="fill:none;stroke:#000000;stroke-width:0.23630263;stroke-miterlimit:4;stroke-opacity:1"
       d="m 1037.875,618.40253 c 0,2.83046 -1.9028,5.125 -4.25,5.125 -2.3472,0 -4.25,-2.29454 -4.25,-5.125 0,-2.83046 1.9028,-5.125 4.25,-5.125 2.3472,0 4.25,2.29454 4.25,5.125 z"
       id="path4300-2-6-6" />
    <path
       transform="matrix(1.6466174,0,0,1.3654876,-1060.1013,-395.39793)"
       style="fill:none;stroke:#000000;stroke-width:0.23630263;stroke-miterlimit:4;stroke-opacity:1"
       d="m 1037.875,618.40253 c 0,2.83046 -1.9028,5.125 -4.25,5.125 -2.3472,0 -4.25,-2.29454 -4.25,-5.125 0,-2.83046 1.9028,-5.125 4.25,-5.125 2.3472,0 4.25,2.29454 4.25,5.125 z"
       id="path4300-2-7-3-0" />
    <path
       transform="matrix(1.6466174,0,0,1.3654876,-1222.7391,-395.39793)"
       style="fill:none;stroke:#000000;stroke-width:0.23630263;stroke-miterlimit:4;stroke-opacity:1"
       d="m 1037.875,618.40253 c 0,2.83046 -1.9028,5.125 -4.25,5.125 -2.3472,0 -4.25,-2.29454 -4.25,-5.125 0,-2.83046 1.9028,-5.125 4.25,-5.125 2.3472,0 4.25,2.29454 4.25,5.125 z"
       id="path4300-2-7-7-6-0" />
    <path
       style="fill:none;stroke:#000000;stroke-width:0.35433072;stroke-miterlimit:4;stroke-opacity:1;stroke-dasharray:none"
       d="m 990.58535,368.64109 c 0,78.11557 -63.3252,141.44074 -141.4408,141.44074 -78.11547,0 -141.44067,-63.32517 -141.44067,-141.44074 0,-78.11557 63.3252,-141.44074 141.44067,-141.44074 78.1156,0 141.4408,63.32517 141.4408,141.44074 z"
       id="path5701" />
    <path
       style="fill:none;stroke:#000000;stroke-width:0.35433072;stroke-miterlimit:4;stroke-opacity:1;stroke-dasharray:none"
       d="m 842.08215,363.29734 c -1.1304,1.48734 -1.7813,3.33148 -1.7813,5.34375 0,1.99957 0.6666,3.85791 1.7813,5.34375 30.8154,0 -18.3309,0 14.125,0 1.1146,-1.48584 1.7812,-3.34418 1.7812,-5.34375 0,-2.01227 -0.6508,-3.85641 -1.7812,-5.34375 -37.2468,0 67.9752,0 -14.125,0 z"
       id="path4212-3-3-9" />
    <path
       transform="matrix(1.6466174,0,0,1.3654876,-873.92294,-496.86257)"
       style="fill:none;stroke:#000000;stroke-width:0.23630263;stroke-miterlimit:4;stroke-opacity:1"
       d="m 1037.875,618.40253 c 0,2.83046 -1.9028,5.125 -4.25,5.125 -2.3472,0 -4.25,-2.29454 -4.25,-5.125 0,-2.83046 1.9028,-5.125 4.25,-5.125 2.3472,0 4.25,2.29454 4.25,5.125 z"
       id="path4300-1-9" />
    <path
       transform="matrix(1.6466174,0,0,1.3654876,-831.75758,-496.86257)"
       style="fill:none;stroke:#000000;stroke-width:0.23630263;stroke-miterlimit:4;stroke-opacity:1"
       d="m 1037.875,618.40253 c 0,2.83046 -1.9028,5.125 -4.25,5.125 -2.3472,0 -4.25,-2.29454 -4.25,-5.125 0,-2.83046 1.9028,-5.125 4.25,-5.125 2.3472,0 4.25,2.29454 4.25,5.125 z"
       id="path4300-2-0-2" />
    <path
       transform="matrix(1.6466174,0,0,1.3654876,-831.75758,-454.69722)"
       style="fill:none;stroke:#000000;stroke-width:0.23630263;stroke-miterlimit:4;stroke-opacity:1"
       d="m 1037.875,618.40253 c 0,2.83046 -1.9028,5.125 -4.25,5.125 -2.3472,0 -4.25,-2.29454 -4.25,-5.125 0,-2.83046 1.9028,-5.125 4.25,-5.125 2.3472,0 4.25,2.29454 4.25,5.125 z"
       id="path4300-2-7-0-0" />
    <path
       transform="matrix(1.6466174,0,0,1.3654876,-873.92294,-454.69722)"
       style="fill:none;stroke:#000000;stroke-width:0.23630263;stroke-miterlimit:4;stroke-opacity:1"
       d="m 1037.875,618.40253 c 0,2.83046 -1.9028,5.125 -4.25,5.125 -2.3472,0 -4.25,-2.29454 -4.25,-5.125 0,-2.83046 1.9028,-5.125 4.25,-5.125 2.3472,0 4.25,2.29454 4.25,5.125 z"
       id="path4300-2-7-7-5-1" />
    <path
       transform="matrix(1.6466174,0,0,1.3654876,-934.15918,-557.09879)"
       style="fill:none;stroke:#000000;stroke-width:0.23630263;stroke-miterlimit:4;stroke-opacity:1"
       d="m 1037.875,618.40253 c 0,2.83046 -1.9028,5.125 -4.25,5.125 -2.3472,0 -4.25,-2.29454 -4.25,-5.125 0,-2.83046 1.9028,-5.125 4.25,-5.125 2.3472,0 4.25,2.29454 4.25,5.125 z"
       id="path4300-6-7-8" />
    <path
       transform="matrix(1.6466174,0,0,1.3654876,-771.52142,-557.09879)"
       style="fill:none;stroke:#000000;stroke-width:0.23630263;stroke-miterlimit:4;stroke-opacity:1"
       d="m 1037.875,618.40253 c 0,2.83046 -1.9028,5.125 -4.25,5.125 -2.3472,0 -4.25,-2.29454 -4.25,-5.125 0,-2.83046 1.9028,-5.125 4.25,-5.125 2.3472,0 4.25,2.29454 4.25,5.125 z"
       id="path4300-2-6-6-9" />
    <path
       transform="matrix(1.6466174,0,0,1.3654876,-771.52142,-394.461)"
       style="fill:none;stroke:#000000;stroke-width:0.23630263;stroke-miterlimit:4;stroke-opacity:1"
       d="m 1037.875,618.40253 c 0,2.83046 -1.9028,5.125 -4.25,5.125 -2.3472,0 -4.25,-2.29454 -4.25,-5.125 0,-2.83046 1.9028,-5.125 4.25,-5.125 2.3472,0 4.25,2.29454 4.25,5.125 z"
       id="path4300-2-7-3-0-2" />
    <path
       transform="matrix(1.6466174,0,0,1.3654876,-934.15918,-394.461)"
       style="fill:none;stroke:#000000;stroke-width:0.23630263;stroke-miterlimit:4;stroke-opacity:1"
       d="m 1037.875,618.40253 c 0,2.83046 -1.9028,5.125 -4.25,5.125 -2.3472,0 -4.25,-2.29454 -4.25,-5.125 0,-2.83046 1.9028,-5.125 4.25,-5.125 2.3472,0 4.25,2.29454 4.25,5.125 z"
       id="path4300-2-7-7-6-0-6" />
    <path
       style="fill:none;stroke:#000000;stroke-width:0.35433072;stroke-miterlimit:4;stroke-opacity:1;stroke-dasharray:none"
       d="m 835.10006,625.55487 c 0,78.11557 -63.3252,141.44074 -141.4408,141.44074 -78.11547,0 -141.44067,-63.32517 -141.44067,-141.44074 0,-78.11557 63.3252,-141.44074 141.44067,-141.44074 78.1156,0 141.4408,63.32517 141.4408,141.44074 z"
       id="path5697" />
    <path
       style="fill:none;stroke:#000000;stroke-width:0.35433072;stroke-miterlimit:4;stroke-opacity:1;stroke-dasharray:none"
       d="m 686.59686,620.21112 c -1.1304,1.48734 -1.7813,3.33148 -1.7813,5.34375 0,1.99957 0.6666,3.85791 1.7813,5.34375 30.8154,0 -18.3309,0 14.125,0 1.1146,-1.48584 1.7812,-3.34418 1.7812,-5.34375 0,-2.01227 -0.6508,-3.85641 -1.7812,-5.34375 -37.2468,0 67.9752,0 -14.125,0 z"
       id="path4212-3-4" />
    <path
       transform="matrix(1.6466174,0,0,1.3654876,-1029.4082,-239.94879)"
       style="fill:none;stroke:#000000;stroke-width:0.23630263;stroke-miterlimit:4;stroke-opacity:1"
       d="m 1037.875,618.40253 c 0,2.83046 -1.9028,5.125 -4.25,5.125 -2.3472,0 -4.25,-2.29454 -4.25,-5.125 0,-2.83046 1.9028,-5.125 4.25,-5.125 2.3472,0 4.25,2.29454 4.25,5.125 z"
       id="path4300-4" />
    <path
       transform="matrix(1.6466174,0,0,1.3654876,-987.24287,-239.94879)"
       style="fill:none;stroke:#000000;stroke-width:0.23630263;stroke-miterlimit:4;stroke-opacity:1"
       d="m 1037.875,618.40253 c 0,2.83046 -1.9028,5.125 -4.25,5.125 -2.3472,0 -4.25,-2.29454 -4.25,-5.125 0,-2.83046 1.9028,-5.125 4.25,-5.125 2.3472,0 4.25,2.29454 4.25,5.125 z"
       id="path4300-2-5" />
    <path
       transform="matrix(1.6466174,0,0,1.3654876,-987.24287,-197.78344)"
       style="fill:none;stroke:#000000;stroke-width:0.23630263;stroke-miterlimit:4;stroke-opacity:1"
       d="m 1037.875,618.40253 c 0,2.83046 -1.9028,5.125 -4.25,5.125 -2.3472,0 -4.25,-2.29454 -4.25,-5.125 0,-2.83046 1.9028,-5.125 4.25,-5.125 2.3472,0 4.25,2.29454 4.25,5.125 z"
       id="path4300-2-7-8" />
    <path
       transform="matrix(1.6466174,0,0,1.3654876,-1029.4082,-197.78344)"
       style="fill:none;stroke:#000000;stroke-width:0.23630263;stroke-miterlimit:4;stroke-opacity:1"
       d="m 1037.875,618.40253 c 0,2.83046 -1.9028,5.125 -4.25,5.125 -2.3472,0 -4.25,-2.29454 -4.25,-5.125 0,-2.83046 1.9028,-5.125 4.25,-5.125 2.3472,0 4.25,2.29454 4.25,5.125 z"
       id="path4300-2-7-7-55" />
    <path
       transform="matrix(1.6466174,0,0,1.3654876,-1089.6445,-300.18501)"
       style="fill:none;stroke:#000000;stroke-width:0.23630263;stroke-miterlimit:4;stroke-opacity:1"
       d="m 1037.875,618.40253 c 0,2.83046 -1.9028,5.125 -4.25,5.125 -2.3472,0 -4.25,-2.29454 -4.25,-5.125 0,-2.83046 1.9028,-5.125 4.25,-5.125 2.3472,0 4.25,2.29454 4.25,5.125 z"
       id="path4300-6-6" />
    <path
       transform="matrix(1.6466174,0,0,1.3654876,-927.00671,-300.18501)"
       style="fill:none;stroke:#000000;stroke-width:0.23630263;stroke-miterlimit:4;stroke-opacity:1"
       d="m 1037.875,618.40253 c 0,2.83046 -1.9028,5.125 -4.25,5.125 -2.3472,0 -4.25,-2.29454 -4.25,-5.125 0,-2.83046 1.9028,-5.125 4.25,-5.125 2.3472,0 4.25,2.29454 4.25,5.125 z"
       id="path4300-2-6-3" />
    <path
       transform="matrix(1.6466174,0,0,1.3654876,-927.00671,-137.54722)"
       style="fill:none;stroke:#000000;stroke-width:0.23630263;stroke-miterlimit:4;stroke-opacity:1"
       d="m 1037.875,618.40253 c 0,2.83046 -1.9028,5.125 -4.25,5.125 -2.3472,0 -4.25,-2.29454 -4.25,-5.125 0,-2.83046 1.9028,-5.125 4.25,-5.125 2.3472,0 4.25,2.29454 4.25,5.125 z"
       id="path4300-2-7-3-01" />
    <path
       transform="matrix(1.6466174,0,0,1.3654876,-1089.6445,-137.54722)"
       style="fill:none;stroke:#000000;stroke-width:0.23630263;stroke-miterlimit:4;stroke-opacity:1"
       d="m 1037.875,618.40253 c 0,2.83046 -1.9028,5.125 -4.25,5.125 -2.3472,0 -4.25,-2.29454 -4.25,-5.125 0,-2.83046 1.9028,-5.125 4.25,-5.125 2.3472,0 4.25,2.29454 4.25,5.125 z"
       id="path4300-2-7-7-6-7" />
  </g>
  <g
     inkscape:groupmode="layer"
     inkscape:label="BIJ"
     id="g442"
     transform="translate(29.0038,8.3086617)" />
  <g
     inkscape:groupmode="layer"
     inkscape:label="LINKS"
     id="g444"
     transform="translate(29.0038,8.3086617)" />
</svg>
